<svg xmlns="http://www.w3.org/2000/svg" width="28" height="28" viewBox="0 0 28 28">
  <g id="Group_1" data-name="Group 1" transform="translate(-1527 -94.993)">
    <g id="Path_12" data-name="Path 12" transform="translate(1524.333 92.326)" fill="none">
      <path d="M8.41,27.974a8.679,8.679,0,0,1,5.038-10.689,5.2,5.2,0,1,1,6.438,0,8.679,8.679,0,0,1,5.039,10.69,14,14,0,0,1-16.514,0Z" stroke="none"/>
      <path d="M 16.66651344299316 29.66693687438965 C 19.33500862121582 29.66693687438965 21.88506698608398 28.8701343536377 24.0633487701416 27.35905838012695 C 24.24272727966309 26.70221519470215 24.33352279663086 26.02231407165527 24.33352279663086 25.33352661132812 C 24.33352279663086 23.77129745483398 23.8666820526123 22.26850700378418 22.98348236083984 20.98762702941895 C 22.119873046875 19.73516654968262 20.92005348205566 18.77545738220215 19.51373291015625 18.21223640441895 L 17.908203125 17.56924629211426 L 19.26645278930664 16.49857711791992 C 20.28344345092773 15.69690704345703 20.86672210693359 14.49473667144775 20.86672210693359 13.20030689239502 C 20.86672210693359 10.88430690765381 18.98251342773438 9.000097274780273 16.66651344299316 9.000097274780273 C 14.35051250457764 9.000097274780273 12.4663028717041 10.88430690765381 12.4663028717041 13.20030689239502 C 12.4663028717041 14.49420738220215 13.04973316192627 15.69672679901123 14.06700325012207 16.4995174407959 L 15.42396259307861 17.57036781311035 L 13.8192024230957 18.21287727355957 C 12.41320323944092 18.77579689025879 11.21360301971436 19.73531723022461 10.35007286071777 20.98769760131836 C 9.466913223266602 22.26854705810547 9.000102996826172 23.77130699157715 9.000102996826172 25.33352661132812 C 9.000102996826172 26.02237129211426 9.090888977050781 26.70223426818848 9.27030086517334 27.35919189453125 C 11.44839000701904 28.87019348144531 13.99821853637695 29.66693687438965 16.66651344299316 29.66693687438965 M 16.66651344299316 30.66693687438965 C 13.57887268066406 30.66693687438965 10.72443294525146 29.66706657409668 8.40958309173584 27.97370719909668 C 8.143702507019043 27.14134788513184 8.000102996826172 26.25413703918457 8.000102996826172 25.33352661132812 C 8.000102996826172 21.68491744995117 10.25550270080566 18.5625171661377 13.44751262664795 17.28451728820801 C 12.2409029006958 16.33230781555176 11.4663028717041 14.85691738128662 11.4663028717041 13.20030689239502 C 11.4663028717041 10.32810688018799 13.79491329193115 8.000097274780273 16.66651344299316 8.000097274780273 C 19.5387134552002 8.000097274780273 21.86672210693359 10.32810688018799 21.86672210693359 13.20030689239502 C 21.86672210693359 14.85691738128662 21.09272384643555 16.33230781555176 19.88551330566406 17.28391647338867 C 23.07812309265137 18.5625171661377 25.33352279663086 21.68491744995117 25.33352279663086 25.33352661132812 C 25.33352279663086 26.25413703918457 25.1899528503418 27.14123725891113 24.92406272888184 27.97358703613281 C 22.60912322998047 29.66694641113281 19.75439262390137 30.66693687438965 16.66651344299316 30.66693687438965 Z" stroke="none" fill="#000"/>
    </g>
    <g id="Path_11" data-name="Path 11" transform="translate(1527 94.993)" fill="none">
      <path d="M14,0A14,14,0,1,1,0,14,14,14,0,0,1,14,0Z" stroke="none"/>
      <path d="M 14.00001907348633 1 C 10.52758979797363 1 7.262998580932617 2.352239608764648 4.807619094848633 4.807619094848633 C 2.352239608764648 7.26300048828125 1 10.52758979797363 1 14.00002002716064 C 1 17.47245025634766 2.352239608764648 20.73703956604004 4.807619094848633 23.19242095947266 C 7.262998580932617 25.64780044555664 10.52758979797363 27.00004005432129 14.00001907348633 27.00004005432129 C 17.47245025634766 27.00004005432129 20.73703956604004 25.64780044555664 23.19241905212402 23.19242095947266 C 25.64779853820801 20.73703956604004 27.00003814697266 17.47245025634766 27.00003814697266 14.00002002716064 C 27.00003814697266 10.52758979797363 25.64779853820801 7.26300048828125 23.19241905212402 4.807619094848633 C 20.73703956604004 2.352239608764648 17.47245025634766 1 14.00001907348633 1 M 14.00001907348633 0 C 21.73201942443848 0 28.00003814697266 6.268020629882812 28.00003814697266 14.00002002716064 C 28.00003814697266 21.73201942443848 21.73201942443848 28.00004005432129 14.00001907348633 28.00004005432129 C 6.26801872253418 28.00004005432129 0 21.73201942443848 0 14.00002002716064 C 0 6.268020629882812 6.26801872253418 0 14.00001907348633 0 Z" stroke="none" fill="#000"/>
    </g>
  </g>
</svg>
